<?xml version="1.0" encoding="UTF-8"?>
<svg version="1.1" xmlns="http://www.w3.org/2000/svg" width="512" height="512">
<path d="M0 0 C0.99422974 0.00215515 1.98845947 0.0043103 3.01281738 0.00653076 C17.48109955 0.05686686 31.66189071 0.35398296 45.875 3.3125 C46.85130371 3.51117676 47.82760742 3.70985352 48.83349609 3.91455078 C97.21339984 14.03634541 141.2005519 35.95291013 176.875 70.3125 C177.8640332 71.26068604 177.8640332 71.26068604 178.87304688 72.22802734 C188.36130305 81.37247479 197.1012044 90.66984009 204.875 101.3125 C205.73306152 102.46355017 206.59113451 103.61459177 207.44921875 104.765625 C213.48736829 112.95680614 218.84595521 121.47054105 223.875 130.3125 C224.23948242 130.94430176 224.60396484 131.57610352 224.97949219 132.22705078 C246.4740329 169.78084014 256.35126533 212.44304389 256.1875 255.4375 C256.18476578 256.9278476 256.18476578 256.9278476 256.18197632 258.44830322 C256.13719978 272.942192 255.67610213 287.05386097 252.875 301.3125 C252.71402832 302.20807617 252.55305664 303.10365234 252.38720703 304.02636719 C244.49797508 347.63313051 224.80850867 388.77106217 195.875 422.3125 C195.24078125 423.05757813 194.6065625 423.80265625 193.953125 424.5703125 C182.14198485 438.07529833 169.39139772 450.74668743 154.875 461.3125 C153.72505169 462.16899066 152.57531411 463.02576433 151.42578125 463.8828125 C143.23410474 469.9234414 134.71854922 475.28255071 125.875 480.3125 C125.24319824 480.67698242 124.61139648 481.04146484 123.96044922 481.41699219 C97.93166464 496.31500327 68.51361377 505.96041257 38.875 510.3125 C37.67254639 510.48910156 36.47009277 510.66570312 35.23120117 510.84765625 C23.51493596 512.45161689 11.87584274 512.71324553 0.0625 512.6875 C-0.92433777 512.68662384 -1.91117554 512.68574768 -2.92791748 512.68484497 C-67.88219852 512.49532667 -130.29571624 487.41579016 -177.125 442.3125 C-177.78435547 441.68037598 -178.44371094 441.04825195 -179.12304688 440.39697266 C-188.61130305 431.25252521 -197.3512044 421.95515991 -205.125 411.3125 C-205.98306152 410.16144983 -206.84113451 409.01040823 -207.69921875 407.859375 C-213.73736829 399.66819386 -219.09595521 391.15445895 -224.125 382.3125 C-224.48948242 381.68069824 -224.85396484 381.04889648 -225.22949219 380.39794922 C-240.15973018 354.31285999 -249.63885054 324.97664886 -254.125 295.3125 C-254.38990234 293.62882324 -254.38990234 293.62882324 -254.66015625 291.91113281 C-256.3170586 280.29802257 -256.52373513 268.78070055 -256.5 257.0625 C-256.49945618 256.05048523 -256.49891235 255.03847046 -256.49835205 253.99578857 C-256.4576051 237.46132605 -255.53386907 221.54185136 -252.125 205.3125 C-251.91601074 204.29720215 -251.70702148 203.2819043 -251.49169922 202.23583984 C-242.71380189 160.92383315 -223.71113066 122.2919774 -196.125 90.3125 C-195.49078125 89.56742187 -194.8565625 88.82234375 -194.203125 88.0546875 C-182.39198485 74.54970167 -169.64139772 61.87831257 -155.125 51.3125 C-153.97505169 50.45600934 -152.82531411 49.59923567 -151.67578125 48.7421875 C-143.48410474 42.7015586 -134.96854922 37.34244929 -126.125 32.3125 C-125.49319824 31.94801758 -124.86139648 31.58353516 -124.21044922 31.20800781 C-98.17975097 16.30890142 -68.76448404 6.66904478 -39.125 2.3125 C-37.32675781 2.04651001 -37.32675781 2.04651001 -35.4921875 1.77514648 C-23.66616559 0.14661384 -11.92341476 -0.04652724 0 0 Z M-93.125 159.3125 C-93.88296875 159.99957031 -94.6409375 160.68664062 -95.421875 161.39453125 C-110.0188365 175.26164467 -120.51490493 193.44140838 -127.125 212.3125 C-127.50269531 213.36566406 -127.88039062 214.41882813 -128.26953125 215.50390625 C-139.42833893 248.89674273 -135.6283732 285.75531091 -120.0625 317.0625 C-117.50487996 322.09273427 -114.66945585 326.77320775 -111.05859375 331.125 C-108.46094514 337.21154069 -112.26276154 345.38741591 -114.28515625 351.28125 C-114.59448593 352.20216431 -114.90381561 353.12307861 -115.22251892 354.07189941 C-116.20377592 356.98787518 -117.19545189 359.90018008 -118.1875 362.8125 C-118.85811556 364.79924515 -119.52804453 366.7862222 -120.19726562 368.7734375 C-121.83191417 373.6225101 -123.47591082 378.46832036 -125.125 383.3125 C-122.42400938 384.66299531 -121.49560657 383.97711403 -118.6628418 383.03320312 C-117.27581306 382.57778137 -117.27581306 382.57778137 -115.86076355 382.11315918 C-114.85870377 381.77675415 -113.85664398 381.44034912 -112.82421875 381.09375 C-110.71166071 380.40212328 -108.59902814 379.71072416 -106.48632812 379.01953125 C-103.14713394 377.91735885 -99.80925589 376.81141997 -96.47290039 375.70068359 C-93.25991598 374.6340479 -90.04245005 373.58192917 -86.82421875 372.53125 C-85.82823166 372.19484497 -84.83224457 371.85843994 -83.80607605 371.51184082 C-82.87193375 371.20822632 -81.93779144 370.90461182 -80.9753418 370.59179688 C-80.15752731 370.32008667 -79.33971283 370.04837646 -78.49711609 369.76843262 C-73.07046231 368.72540253 -69.4426334 371.14937682 -64.9375 373.9375 C-51.30003824 382.00894898 -36.6612642 386.53506729 -21.125 389.3125 C-20.07441406 389.50585938 -19.02382812 389.69921875 -17.94140625 389.8984375 C17.78742112 393.7748507 53.99569567 384.99703998 82.41796875 362.578125 C85.66636884 359.92644648 88.78778889 357.14905797 91.875 354.3125 C93.18210937 353.12914062 93.18210937 353.12914062 94.515625 351.921875 C115.35226101 332.13362319 127.87048756 305.30649148 132.875 277.3125 C133.06835938 276.26191406 133.26171875 275.21132813 133.4609375 274.12890625 C137.3373507 238.40007888 128.55953998 202.19180433 106.140625 173.76953125 C103.48894648 170.52113116 100.71155797 167.39971111 97.875 164.3125 C96.69164062 163.00539063 96.69164062 163.00539063 95.484375 161.671875 C75.69612319 140.83523899 48.86899148 128.31701244 20.875 123.3125 C19.82441406 123.11914062 18.77382813 122.92578125 17.69140625 122.7265625 C-23.91099489 118.21289359 -62.51479667 131.08148811 -93.125 159.3125 Z " fill="#000000" transform="translate(256.125,-0.3125)"/>
<path d="M0 0 C6.01968958 4.06769673 11.11568578 8.72158096 16.20727539 13.89038086 C16.99166992 14.66317383 17.77606445 15.4359668 18.58422852 16.23217773 C28.05264539 25.74886182 28.05264539 25.74886182 29.39086914 32.42944336 C29.26435496 37.06829651 28.96767881 40.24420432 25.89477539 43.95288086 C23.19977072 46.4233018 20.49687787 48.17348022 17.26977539 49.82788086 C13.36669301 52.28537717 12.22096225 53.55988688 10.89477539 57.95288086 C10.23309853 68.72580719 16.77601849 77.5397024 23.44946289 85.34741211 C30.89934747 93.28522842 41.42054812 102.00565091 52.76977539 102.57788086 C57.08263632 102.21198833 59.68380955 100.94491721 62.89477539 97.95288086 C64.23189415 95.70371504 65.4208435 93.40240504 66.62133789 91.07788086 C69.19555004 86.78226305 72.5977803 85.31315727 77.26977539 84.01538086 C83.25280383 83.9122252 86.92476122 85.24925225 91.37915039 89.10131836 C95.89795193 93.55165321 100.12219315 98.24890979 104.23071289 103.07788086 C105.97010624 105.03776069 107.8124434 106.83132316 109.70727539 108.64038086 C114.15995045 113.07308876 115.0890445 116.46126983 115.25805664 122.79272461 C114.03436981 130.06905596 108.64993258 134.6822807 103.64477539 139.64038086 C102.90614258 140.39899414 102.16750977 141.15760742 101.40649414 141.93920898 C94.86728255 148.47265408 89.97986627 151.37490673 80.45727539 151.45288086 C49.49880136 151.16351552 21.56996879 126.075372 1.03466797 105.32739258 C-3.68239667 100.45563066 -7.98518977 95.33444849 -12.10522461 89.95288086 C-12.90573242 88.91905273 -13.70624023 87.88522461 -14.53100586 86.82006836 C-25.95278441 71.68910958 -37.0761762 53.05749906 -37.35522461 33.64038086 C-37.38100586 32.57174805 -37.40678711 31.50311523 -37.43334961 30.40209961 C-36.52160186 20.81789411 -31.92641502 16.03986429 -25.23022461 9.57788086 C-24.42713867 8.7722168 -23.62405273 7.96655273 -22.79663086 7.13647461 C-16.52658821 0.96972755 -8.99210531 -4.47258955 0 0 Z " fill="#000000" transform="translate(217.105224609375,181.047119140625)"/>
</svg>
