<?xml version="1.0" encoding="UTF-8"?>
<svg xmlns="http://www.w3.org/2000/svg" xmlns:xlink="http://www.w3.org/1999/xlink" width="512" height="512" viewBox="0 0 512 512" version="1.1">
<g id="surface1">
<path style=" stroke:none;fill-rule:nonzero;fill:rgb(0%,0%,0%);fill-opacity:1;" d="M 256.125 -0.3125 C 257.121094 -0.308594 258.113281 -0.308594 259.136719 -0.304688 C 273.605469 -0.253906 287.785156 0.0429688 302 3 C 302.976562 3.199219 303.953125 3.398438 304.957031 3.601562 C 353.339844 13.722656 397.324219 35.640625 433 70 C 433.988281 70.949219 433.988281 70.949219 435 71.914062 C 444.484375 81.058594 453.226562 90.355469 461 101 C 461.859375 102.152344 462.714844 103.300781 463.574219 104.453125 C 469.613281 112.644531 474.972656 121.15625 480 130 C 480.363281 130.632812 480.730469 131.261719 481.105469 131.914062 C 502.597656 169.46875 512.476562 212.128906 512.3125 255.125 C 512.308594 256.617188 512.308594 256.617188 512.308594 258.136719 C 512.261719 272.628906 511.800781 286.742188 509 301 C 508.839844 301.894531 508.679688 302.792969 508.511719 303.714844 C 500.621094 347.320312 480.933594 388.457031 452 422 C 451.367188 422.746094 450.730469 423.488281 450.078125 424.257812 C 438.265625 437.761719 425.515625 450.433594 411 461 C 409.851562 461.855469 408.699219 462.714844 407.550781 463.570312 C 399.359375 469.609375 390.84375 474.96875 382 480 C 381.367188 480.363281 380.738281 480.730469 380.085938 481.105469 C 354.058594 496.003906 324.636719 505.648438 295 510 C 293.796875 510.175781 292.59375 510.351562 291.355469 510.535156 C 279.640625 512.140625 268 512.402344 256.1875 512.375 C 255.199219 512.375 254.214844 512.375 253.195312 512.371094 C 188.242188 512.183594 125.828125 487.101562 79 442 C 78.339844 441.367188 77.679688 440.734375 77 440.085938 C 67.515625 430.941406 58.773438 421.644531 51 411 C 50.140625 409.847656 49.285156 408.699219 48.425781 407.546875 C 42.386719 399.355469 37.027344 390.84375 32 382 C 31.636719 381.367188 31.269531 380.738281 30.894531 380.085938 C 15.964844 354 6.484375 324.664062 2 295 C 1.734375 293.316406 1.734375 293.316406 1.464844 291.597656 C -0.191406 279.984375 -0.398438 268.46875 -0.375 256.75 C -0.375 255.738281 -0.375 254.726562 -0.375 253.683594 C -0.332031 237.148438 0.589844 221.230469 4 205 C 4.210938 203.984375 4.417969 202.96875 4.632812 201.921875 C 13.410156 160.613281 32.414062 121.980469 60 90 C 60.632812 89.253906 61.269531 88.511719 61.921875 87.742188 C 73.734375 74.238281 86.484375 61.566406 101 51 C 102.148438 50.144531 103.300781 49.285156 104.449219 48.429688 C 112.640625 42.390625 121.15625 37.03125 130 32 C 130.632812 31.636719 131.261719 31.269531 131.914062 30.894531 C 157.945312 15.996094 187.359375 6.355469 217 2 C 218.796875 1.734375 218.796875 1.734375 220.632812 1.460938 C 232.457031 -0.164062 244.203125 -0.359375 256.125 -0.3125 Z M 163 159 C 162.242188 159.6875 161.484375 160.375 160.703125 161.082031 C 146.105469 174.949219 135.609375 193.128906 129 212 C 128.621094 213.054688 128.246094 214.105469 127.855469 215.191406 C 116.695312 248.585938 120.496094 285.441406 136.0625 316.75 C 138.621094 321.78125 141.457031 326.460938 145.066406 330.8125 C 147.664062 336.898438 143.863281 345.074219 141.839844 350.96875 C 141.53125 351.890625 141.222656 352.8125 140.902344 353.757812 C 139.921875 356.675781 138.929688 359.585938 137.9375 362.5 C 137.265625 364.488281 136.597656 366.472656 135.929688 368.460938 C 134.292969 373.308594 132.648438 378.15625 131 383 C 133.699219 384.351562 134.628906 383.664062 137.460938 382.71875 C 138.847656 382.265625 138.847656 382.265625 140.265625 381.800781 C 141.265625 381.464844 142.269531 381.128906 143.300781 380.78125 C 145.414062 380.089844 147.527344 379.398438 149.640625 378.707031 C 152.976562 377.605469 156.316406 376.5 159.652344 375.386719 C 162.863281 374.320312 166.082031 373.269531 169.300781 372.21875 C 170.296875 371.882812 171.292969 371.546875 172.320312 371.199219 C 173.253906 370.894531 174.1875 370.59375 175.148438 370.28125 C 175.96875 370.007812 176.785156 369.734375 177.628906 369.457031 C 183.054688 368.414062 186.683594 370.835938 191.1875 373.625 C 204.824219 381.695312 219.464844 386.222656 235 389 C 236.050781 389.195312 237.101562 389.386719 238.183594 389.585938 C 273.914062 393.460938 310.121094 384.683594 338.542969 362.265625 C 341.792969 359.613281 344.914062 356.835938 348 354 C 349.308594 352.816406 349.308594 352.816406 350.640625 351.609375 C 371.476562 331.820312 383.996094 304.992188 389 277 C 389.195312 275.949219 389.386719 274.898438 389.585938 273.816406 C 393.460938 238.085938 384.683594 201.878906 362.265625 173.457031 C 359.613281 170.207031 356.835938 167.085938 354 164 C 352.816406 162.691406 352.816406 162.691406 351.609375 161.359375 C 331.820312 140.523438 304.992188 128.003906 277 123 C 275.949219 122.804688 274.898438 122.613281 273.816406 122.414062 C 232.214844 117.902344 193.609375 130.769531 163 159 Z M 163 159 "/>
<path style=" stroke:none;fill-rule:nonzero;fill:rgb(0%,0%,0%);fill-opacity:1;" d="M 217.105469 181.046875 C 223.125 185.113281 228.222656 189.769531 233.3125 194.9375 C 234.097656 195.710938 234.882812 196.484375 235.691406 197.277344 C 245.15625 206.796875 245.15625 206.796875 246.496094 213.476562 C 246.371094 218.117188 246.074219 221.292969 243 225 C 240.304688 227.46875 237.601562 229.21875 234.375 230.875 C 230.472656 233.332031 229.328125 234.605469 228 239 C 227.339844 249.773438 233.882812 258.585938 240.554688 266.394531 C 248.003906 274.332031 258.527344 283.054688 269.875 283.625 C 274.1875 283.257812 276.789062 281.992188 280 279 C 281.335938 276.75 282.527344 274.449219 283.726562 272.125 C 286.300781 267.828125 289.703125 266.359375 294.375 265.0625 C 300.359375 264.960938 304.03125 266.296875 308.484375 270.148438 C 313.003906 274.597656 317.226562 279.296875 321.335938 284.125 C 323.074219 286.085938 324.917969 287.878906 326.8125 289.6875 C 331.265625 294.121094 332.195312 297.507812 332.363281 303.839844 C 331.140625 311.117188 325.753906 315.730469 320.75 320.6875 C 320.011719 321.445312 319.273438 322.203125 318.511719 322.984375 C 311.972656 329.519531 307.085938 332.421875 297.5625 332.5 C 266.605469 332.210938 238.675781 307.121094 218.140625 286.375 C 213.421875 281.503906 209.121094 276.382812 205 271 C 204.199219 269.964844 203.398438 268.933594 202.574219 267.867188 C 191.152344 252.734375 180.027344 234.105469 179.75 214.6875 C 179.722656 213.617188 179.699219 212.550781 179.671875 211.449219 C 180.582031 201.863281 185.179688 197.085938 191.875 190.625 C 192.679688 189.820312 193.480469 189.011719 194.308594 188.183594 C 200.578125 182.015625 208.113281 176.574219 217.105469 181.046875 Z M 217.105469 181.046875 "/>
</g>
</svg>
