<?xml version="1.0" encoding="UTF-8"?>
<svg xmlns="http://www.w3.org/2000/svg" xmlns:xlink="http://www.w3.org/1999/xlink" width="512" height="512" viewBox="0 0 512 512" version="1.1">
<g id="surface1">
<path style=" stroke:none;fill-rule:nonzero;fill:rgb(0%,0%,0%);fill-opacity:1;" d="M 256 32 C 132.300781 32 32 134.898438 32 261.699219 C 32 363.199219 96.199219 449.199219 185.199219 479.601562 C 186.601562 479.898438 187.800781 480 189 480 C 197.300781 480 200.5 473.898438 200.5 468.601562 C 200.5 463.101562 200.300781 448.699219 200.199219 429.5 C 191.800781 431.398438 184.300781 432.199219 177.601562 432.199219 C 134.5 432.199219 124.699219 398.699219 124.699219 398.699219 C 114.5 372.199219 99.800781 365.101562 99.800781 365.101562 C 80.300781 351.398438 99.699219 351 101.199219 351 C 101.300781 351 101.300781 351 101.300781 351 C 123.800781 353 135.601562 374.800781 135.601562 374.800781 C 146.800781 394.398438 161.800781 399.898438 175.199219 399.898438 C 185.699219 399.898438 195.199219 396.5 200.800781 393.898438 C 202.800781 379.101562 208.601562 369 215 363.199219 C 165.300781 357.398438 113 337.699219 113 249.699219 C 113 224.601562 121.699219 204.101562 136 188.101562 C 133.699219 182.300781 126 158.898438 138.199219 127.300781 C 138.199219 127.300781 139.800781 126.800781 143.199219 126.800781 C 151.300781 126.800781 169.601562 129.898438 199.800781 150.898438 C 217.699219 145.800781 236.800781 143.300781 255.898438 143.199219 C 274.898438 143.300781 294.101562 145.800781 312 150.898438 C 342.199219 129.898438 360.5 126.800781 368.601562 126.800781 C 372 126.800781 373.601562 127.300781 373.601562 127.300781 C 385.800781 158.898438 378.101562 182.300781 375.800781 188.101562 C 390.101562 204.199219 398.800781 224.699219 398.800781 249.699219 C 398.800781 337.898438 346.398438 357.300781 296.5 363 C 304.5 370.101562 311.699219 384.101562 311.699219 405.5 C 311.699219 436.199219 311.398438 461 311.398438 468.5 C 311.398438 473.898438 314.5 480 322.800781 480 C 324 480 325.398438 479.898438 326.800781 479.601562 C 415.898438 449.199219 480 363.101562 480 261.699219 C 480 134.898438 379.699219 32 256 32 Z M 256 32 "/>
</g>
</svg>
