<?xml version="1.0" encoding="UTF-8"?>
<svg xmlns="http://www.w3.org/2000/svg" xmlns:xlink="http://www.w3.org/1999/xlink" width="512" height="512" viewBox="0 0 512 512" version="1.1">
<g id="surface1">
<path style=" stroke:none;fill-rule:nonzero;fill:rgb(0%,0%,0%);fill-opacity:1;" d="M 256 10.238281 C 120.269531 10.238281 10.238281 120.269531 10.238281 256 C 10.238281 391.730469 120.269531 501.761719 256 501.761719 C 391.730469 501.761719 501.761719 391.730469 501.761719 256 C 501.761719 120.269531 391.730469 10.238281 256 10.238281 Z M 159.511719 179.199219 L 352.027344 179.199219 C 362.238281 179.199219 356.964844 192.308594 351.410156 195.660156 C 345.855469 198.988281 268.980469 245.503906 266.085938 247.21875 C 263.195312 248.933594 259.507812 249.777344 255.769531 249.777344 C 252.171875 249.851562 248.621094 248.96875 245.476562 247.21875 L 160.128906 195.660156 C 154.574219 192.308594 149.324219 179.199219 159.511719 179.199219 Z M 358.398438 320 C 358.398438 325.375 351.949219 332.800781 347.035156 332.800781 L 164.964844 332.800781 C 160.050781 332.800781 153.601562 325.375 153.601562 320 L 153.601562 226.636719 C 153.601562 224.28125 153.546875 221.234375 158.003906 223.820312 L 245.476562 275.40625 C 248.566406 277.292969 252.15625 278.1875 255.769531 277.964844 C 259.507812 277.964844 262.222656 277.683594 266.085938 275.40625 L 353.996094 223.847656 C 358.453125 221.234375 358.398438 224.308594 358.398438 226.664062 Z M 358.398438 320 "/>
</g>
</svg>
