<?xml version="1.0" encoding="UTF-8"?>
<svg version="1.1" xmlns="http://www.w3.org/2000/svg" width="140" height="140">
<path d="M0 0 C46.2 0 92.4 0 140 0 C140 46.2 140 92.4 140 140 C93.8 140 47.6 140 0 140 C0 93.8 0 47.6 0 0 Z " fill="#FFFFFF" transform="translate(0,0)"/>
<path d="M0 0 C7.46890396 6.15447514 11.80036933 13.14370036 13.34375 22.73046875 C14.19439197 32.60399167 11.58719224 40.869564 5.3125 48.51953125 C-1.55131388 55.91359684 -9.6207866 59.51814462 -19.60546875 60.2265625 C-28.91251661 60.36777288 -36.58098327 56.5884946 -43.484375 50.44921875 C-49.95221587 43.62205339 -52.63296046 36.57597838 -52.875 27.20703125 C-52.51733934 16.87957962 -49.70540633 9.73386748 -42.4375 2.26953125 C-30.1898465 -7.8575038 -13.17714354 -9.35492723 0 0 Z " fill="#000000" transform="translate(89.4375,42.73046875)"/>
<path d="M0 0 C1.05368774 0.00012085 1.05368774 0.00012085 2.12866211 0.00024414 C4.27087312 -0.00194055 6.41256783 -0.02008824 8.5546875 -0.0390625 C9.91080552 -0.04199671 11.266926 -0.04398132 12.62304688 -0.04492188 C13.86304443 -0.04903076 15.10304199 -0.05313965 16.38061523 -0.05737305 C19.34570312 0.18554688 19.34570312 0.18554688 21.34570312 2.18554688 C21.61132812 4.06054688 21.61132812 4.06054688 21.59570312 6.18554688 C21.6034375 7.23742187 21.6034375 7.23742187 21.61132812 8.31054688 C21.34570312 10.18554688 21.34570312 10.18554688 19.34570312 12.18554688 C14.71714502 12.64786845 10.05715516 12.50952577 5.40820312 12.49804688 C3.45624023 12.5222168 3.45624023 12.5222168 1.46484375 12.546875 C-0.40204102 12.5478418 -0.40204102 12.5478418 -2.30664062 12.54882812 C-3.45124756 12.55180908 -4.59585449 12.55479004 -5.77514648 12.55786133 C-8.65429688 12.18554688 -8.65429688 12.18554688 -10.53051758 10.78833008 C-12.63752512 7.78322374 -11.88360974 4.7398963 -11.65429688 1.18554688 C-9.2241365 -1.2446135 -3.39654557 0.01232133 0 0 Z " fill="#FFFFFF" transform="translate(66.654296875,78.814453125)"/>
<path d="M0 0 C2.0699881 -0.00971028 4.13898526 -0.04072275 6.20874023 -0.07226562 C7.50618164 -0.07742187 8.80362305 -0.08257812 10.14038086 -0.08789062 C11.9375354 -0.10190918 11.9375354 -0.10190918 13.77099609 -0.11621094 C14.71918213 0.00141602 15.66736816 0.11904297 16.64428711 0.24023438 C18.94870265 3.69685768 18.90288846 5.18881319 18.64428711 9.24023438 C18.31428711 9.90023437 17.98428711 10.56023438 17.64428711 11.24023438 C7.41428711 11.24023438 -2.81571289 11.24023438 -13.35571289 11.24023438 C-13.35571289 -2.6360975 -11.91965405 0.0339551 0 0 Z " fill="#FFFFFF" transform="translate(69.355712890625,50.759765625)"/>
<path d="M0 0 C3.81254623 -0.02682792 7.62490612 -0.04675477 11.4375 -0.0625 C12.52611328 -0.07087891 13.61472656 -0.07925781 14.73632812 -0.08789062 C15.77080078 -0.09111328 16.80527344 -0.09433594 17.87109375 -0.09765625 C18.82943115 -0.10289307 19.78776855 -0.10812988 20.77514648 -0.11352539 C23 0 23 0 24 1 C24.0979057 2.49738124 24.12974864 3.99942892 24.125 5.5 C24.12886719 6.72203125 24.12886719 6.72203125 24.1328125 7.96875 C24 10 24 10 23 11 C21.29227642 11.08713831 19.58101351 11.10700007 17.87109375 11.09765625 C16.31938477 11.09282227 16.31938477 11.09282227 14.73632812 11.08789062 C13.64771484 11.07951172 12.55910156 11.07113281 11.4375 11.0625 C9.7987793 11.05573242 9.7987793 11.05573242 8.12695312 11.04882812 C5.41794568 11.0369984 2.7089662 11.01906231 0 11 C0 7.37 0 3.74 0 0 Z " fill="#FFFFFF" transform="translate(49,65)"/>
</svg>
