<?xml version="1.0" encoding="UTF-8"?>
<svg xmlns="http://www.w3.org/2000/svg" xmlns:xlink="http://www.w3.org/1999/xlink" width="512" height="512" viewBox="0 0 512 512" version="1.1">
<g id="surface1">
<path style=" stroke:none;fill-rule:nonzero;fill:rgb(100%,100%,100%);fill-opacity:1;" d="M -279.175781 -277.578125 C 73.875 -277.578125 426.925781 -277.578125 790.675781 -277.578125 C 790.675781 75.472656 790.675781 428.523438 790.675781 792.269531 C 437.625 792.269531 84.574219 792.269531 -279.175781 792.269531 C -279.175781 439.21875 -279.175781 86.167969 -279.175781 -277.578125 Z M -279.175781 -277.578125 "/>
<path style=" stroke:none;fill-rule:nonzero;fill:rgb(0%,0%,0%);fill-opacity:1;" d="M 404.285156 48.957031 C 461.363281 95.988281 494.464844 149.398438 506.257812 222.660156 C 512.757812 298.109375 492.832031 361.273438 444.882812 419.734375 C 392.433594 476.238281 330.765625 503.78125 254.464844 509.195312 C 183.34375 510.273438 124.742188 481.394531 71.988281 434.480469 C 22.5625 382.308594 2.078125 328.464844 0.226562 256.867188 C 2.960938 177.949219 24.449219 123.339844 79.988281 66.300781 C 173.582031 -11.089844 303.589844 -22.53125 404.285156 48.957031 Z M 404.285156 48.957031 "/>
<path style=" stroke:none;fill-rule:nonzero;fill:rgb(100%,100%,100%);fill-opacity:1;" d="M 230.183594 324.703125 C 238.234375 324.703125 238.234375 324.703125 246.449219 324.707031 C 262.820312 324.6875 279.1875 324.550781 295.554688 324.40625 C 305.917969 324.382812 316.28125 324.367188 326.644531 324.359375 C 336.121094 324.328125 345.597656 324.296875 355.359375 324.265625 C 378.019531 326.121094 378.019531 326.121094 393.300781 341.40625 C 395.332031 355.734375 395.332031 355.734375 395.210938 371.972656 C 395.269531 380.011719 395.269531 380.011719 395.332031 388.210938 C 393.300781 402.539062 393.300781 402.539062 378.019531 417.824219 C 342.648438 421.355469 307.039062 420.300781 271.511719 420.210938 C 256.59375 420.394531 256.59375 420.394531 241.375 420.585938 C 227.109375 420.589844 227.109375 420.589844 212.554688 420.597656 C 203.808594 420.621094 195.0625 420.644531 186.050781 420.667969 C 164.046875 417.824219 164.046875 417.824219 149.710938 407.144531 C 133.609375 384.179688 139.371094 360.925781 141.121094 333.761719 C 159.695312 315.191406 204.226562 324.796875 230.183594 324.703125 Z M 230.183594 324.703125 "/>
<path style=" stroke:none;fill-rule:nonzero;fill:rgb(100%,100%,100%);fill-opacity:1;" d="M 250.824219 110.316406 C 266.644531 110.242188 282.457031 110.003906 298.273438 109.761719 C 308.1875 109.722656 318.101562 109.683594 328.316406 109.644531 C 342.050781 109.535156 342.050781 109.535156 356.0625 109.425781 C 363.308594 110.328125 370.554688 111.226562 378.019531 112.152344 C 395.628906 138.566406 395.277344 149.96875 393.300781 180.925781 C 390.78125 185.972656 388.257812 191.015625 385.660156 196.210938 C 307.484375 196.210938 229.308594 196.210938 148.765625 196.210938 C 148.765625 90.171875 159.738281 110.574219 250.824219 110.316406 Z M 250.824219 110.316406 "/>
<path style=" stroke:none;fill-rule:nonzero;fill:rgb(100%,100%,100%);fill-opacity:1;" d="M 95.273438 219.136719 C 124.40625 218.929688 153.539062 218.777344 182.675781 218.660156 C 190.992188 218.59375 199.3125 218.53125 207.882812 218.464844 C 215.789062 218.441406 223.695312 218.414062 231.839844 218.390625 C 239.164062 218.351562 246.484375 218.308594 254.03125 218.269531 C 271.035156 219.136719 271.035156 219.136719 278.675781 226.777344 C 279.421875 238.222656 279.667969 249.699219 279.628906 261.167969 C 279.660156 270.503906 279.660156 270.503906 279.691406 280.03125 C 278.675781 295.554688 278.675781 295.554688 271.035156 303.195312 C 257.984375 303.863281 244.90625 304.015625 231.839844 303.941406 C 219.980469 303.90625 219.980469 303.90625 207.882812 303.867188 C 199.566406 303.804688 191.246094 303.738281 182.675781 303.675781 C 170.152344 303.621094 170.152344 303.621094 157.375 303.570312 C 136.675781 303.480469 115.972656 303.34375 95.273438 303.195312 C 95.273438 275.457031 95.273438 247.71875 95.273438 219.136719 Z M 95.273438 219.136719 "/>
</g>
</svg>
